<?xml version="1.0" standalone="no"?>
<!DOCTYPE svg PUBLIC "-//W3C//DTD SVG 20010904//EN"
 "http://www.w3.org/TR/2001/REC-SVG-20010904/DTD/svg10.dtd">
<svg version="1.0" xmlns="http://www.w3.org/2000/svg"
 width="400.000000pt" height="400.000000pt" viewBox="0 0 400.000000 400.000000"
 preserveAspectRatio="xMidYMid meet">

<g transform="translate(0.000000,400.000000) scale(0.100000,-0.100000)"
fill="#000000" stroke="none">
<path d="M547 2823 c-4 -3 -7 -172 -7 -375 l0 -369 184 3 c206 3 220 8 257 78
17 31 19 61 19 303 0 259 -1 270 -22 299 -40 56 -83 68 -264 68 -88 0 -164 -3
-167 -7z m337 -105 c13 -19 16 -61 16 -259 0 -301 6 -289 -146 -289 l-104 0 0
285 0 285 109 0 c102 0 111 -2 125 -22z"/>
<path d="M1117 2824 c-4 -4 -7 -29 -7 -56 l0 -48 51 0 50 0 -3 53 -3 52 -40 3
c-23 2 -44 0 -48 -4z"/>
<path d="M1857 2824 c-4 -4 -7 -29 -7 -56 l0 -48 51 0 50 0 -3 53 -3 52 -40 3
c-23 2 -44 0 -48 -4z"/>
<path d="M2093 2823 c-9 -3 -13 -32 -13 -94 l0 -89 -40 0 -40 0 0 -45 0 -45
40 0 40 0 0 -172 c0 -148 3 -179 19 -215 26 -57 78 -83 166 -83 l65 0 0 45 0
45 -50 0 c-91 0 -103 31 -98 241 l3 134 68 3 67 3 0 44 0 44 -67 3 -68 3 -3
85 c-2 52 -8 87 -15 92 -13 8 -55 9 -74 1z"/>
<path d="M2930 2456 l0 -376 50 0 50 0 -2 373 -3 372 -47 3 -48 3 0 -375z"/>
<path d="M1110 2360 l0 -280 50 0 50 0 0 280 0 280 -50 0 -50 0 0 -280z"/>
<path d="M1394 2621 c-24 -11 -50 -33 -62 -53 -20 -32 -22 -49 -22 -198 0
-148 2 -166 21 -197 31 -50 65 -63 164 -63 78 0 88 2 111 25 14 14 27 25 29
25 10 0 5 -88 -6 -119 -13 -38 -23 -40 -164 -44 l-110 -2 -3 -42 -3 -43 144 0
c133 0 147 2 178 23 67 44 69 56 69 400 l0 307 -152 0 c-128 0 -160 -4 -194
-19z m241 -229 c0 -150 -1 -154 -24 -173 -18 -15 -39 -19 -92 -19 -104 0 -109
7 -109 170 0 126 1 132 25 156 23 23 31 25 112 22 l88 -3 0 -153z"/>
<path d="M1850 2361 l0 -281 50 0 50 0 -2 278 -3 277 -47 3 -48 3 0 -280z"/>
<path d="M2473 2620 c-75 -34 -83 -58 -83 -261 0 -166 1 -178 23 -210 32 -49
79 -69 160 -69 67 0 127 19 127 40 0 6 5 10 10 10 6 0 10 -11 10 -25 0 -23 3
-25 50 -25 l50 0 0 280 0 280 -152 0 c-129 0 -160 -3 -195 -20z m245 -210 c5
-221 -5 -240 -117 -240 -63 0 -71 2 -90 26 -19 24 -21 40 -21 166 0 135 1 140
25 164 23 23 31 25 112 22 l88 -3 3 -135z"/>
<path d="M550 1575 l0 -375 25 0 25 0 2 168 3 167 165 0 165 0 3 -167 2 -168
25 0 25 0 0 375 0 375 -25 0 -25 0 0 -185 0 -185 -167 2 -168 3 -3 183 -2 182
-25 0 -25 0 0 -375z"/>
<path d="M1194 1741 c-69 -31 -79 -65 -79 -266 0 -192 9 -224 75 -257 52 -27
213 -25 257 2 64 39 68 54 68 260 0 176 -1 187 -22 216 -13 18 -41 39 -63 48
-57 23 -183 21 -236 -3z m241 -55 c32 -32 37 -70 33 -241 -3 -145 -3 -147 -30
-170 -53 -45 -199 -45 -244 0 -23 24 -24 28 -24 199 0 173 0 175 26 205 25 31
27 31 120 31 87 0 97 -2 119 -24z"/>
<path d="M1630 1530 c0 -256 4 -274 63 -310 25 -16 50 -20 118 -20 75 0 91 3
123 25 l36 24 0 -24 c0 -20 5 -25 25 -25 l25 0 0 280 0 280 -25 0 -25 0 0
-226 0 -226 -28 -28 c-31 -31 -106 -47 -164 -35 -97 19 -98 21 -98 295 l0 220
-25 0 -25 0 0 -230z"/>
<path d="M2188 1744 c-48 -20 -72 -70 -65 -133 7 -61 40 -89 162 -136 54 -21
106 -46 116 -56 10 -10 21 -39 25 -64 5 -38 3 -52 -13 -73 -25 -33 -51 -39
-180 -41 -96 -1 -103 -2 -103 -21 0 -19 7 -20 125 -20 152 0 188 11 212 67 19
48 12 136 -15 172 -12 17 -56 40 -128 69 -124 49 -142 63 -151 114 -4 30 -1
41 20 62 25 25 31 26 142 26 l115 0 0 25 0 25 -112 -1 c-78 0 -125 -5 -150
-15z"/>
<path d="M2651 1742 c-70 -35 -76 -53 -79 -250 -3 -200 4 -227 67 -269 32 -21
45 -23 183 -23 137 0 149 1 146 18 -3 15 -20 18 -146 22 -138 6 -143 7 -169
33 -24 24 -28 37 -31 102 l-4 75 177 0 177 0 -4 114 c-3 106 -5 116 -28 142
-38 41 -80 54 -172 54 -59 0 -93 -5 -117 -18z m240 -61 c27 -28 29 -34 29
-110 l0 -82 -147 3 -148 3 -3 64 c-6 123 22 151 151 151 85 0 90 -1 118 -29z"/>
<path d="M3194 1745 c-8 -20 0 -28 65 -68 28 -18 109 -68 181 -112 71 -44 130
-83 130 -86 0 -3 -82 -57 -182 -119 -101 -62 -186 -118 -190 -124 -11 -16 -9
-36 3 -36 6 0 93 50 193 112 99 61 191 117 204 125 14 9 22 23 22 41 0 24 -18
38 -187 142 -245 151 -232 144 -239 125z"/>
</g>
</svg>
